<?xml version="1.0" encoding="UTF-8"?>
<svg width="74.536" height="33.925" version="1.1" viewBox="-0.81 -0.354 74.535996 33.924999" xml:space="preserve" xmlns="http://www.w3.org/2000/svg" xmlns:cc="http://creativecommons.org/ns#" xmlns:dc="http://purl.org/dc/elements/1.1/" xmlns:rdf="http://www.w3.org/1999/02/22-rdf-syntax-ns#"><metadata><rdf:RDF><cc:Work rdf:about=""><dc:format>image/svg+xml</dc:format><dc:type rdf:resource="http://purl.org/dc/dcmitype/StillImage"/></cc:Work></rdf:RDF></metadata>
	<g transform="translate(-.81 -.354)">
		<polygon points="59.95 7.772 62.928 11.054 65.795 7.772 71.917 7.772 65.934 14.5 71.999 21.283 65.63 21.283 62.68 17.975 59.757 21.283 53.607 21.283 59.619 14.528 53.607 7.772" fill="#ffffff"/>
		<polygon points="53.607 7.772 53.607 12.337 46.798 12.337 46.798 16.526 53.607 16.526 53.607 21.283 41.794 21.283 41.794 0 53.607 0 53.607 4.744 46.798 4.744 46.798 7.772" fill="#ffffff"/>
		<path d="m36.811 0v8.71h-0.055c-1.104-1.268-2.482-1.709-4.081-1.709-3.276 0-5.744 2.228-6.61 5.172-0.989-3.244-3.537-5.233-7.315-5.233-3.068 0-5.491 1.377-6.755 3.621v-2.789h-6.342v-3.028h6.921v-4.744h-12.574v21.283h5.653v-8.946h5.635c-0.168 0.657-0.258 1.361-0.258 2.104 0 4.439 3.392 7.555 7.72 7.555 3.64 0 6.039-1.709 7.307-4.824h-4.845c-0.655 0.937-1.152 1.214-2.462 1.214-1.519 0-2.829-1.325-2.829-2.896h9.865c0.428 3.526 3.175 6.567 6.944 6.567 1.626 0 3.115-0.8 4.025-2.15h0.055v1.378h4.983v-21.285h-4.982zm-20.732 12.4c0.314-1.352 1.363-2.235 2.672-2.235 1.441 0 2.436 0.856 2.698 2.235h-5.37zm17.707 5.643c-1.837 0-2.979-1.712-2.979-3.499 0-1.91 0.993-3.747 2.979-3.747 2.059 0 2.879 1.837 2.879 3.747 0 1.811-0.869 3.499-2.879 3.499z" fill="#ffffff"/>
		<path d="m41.795 31.925v-7.627h4.214v0.569h-3.519v2.812h3.37v0.569h-3.37v3.106h3.676v0.57h-4.371z" fill="#ffffff"/>
		<path d="m46.669 31.925 2.055-2.739-1.949-2.591h0.79l1.591 2.117 1.559-2.117h0.79l-1.98 2.591 2.064 2.739h-0.8l-1.707-2.266-1.622 2.266h-0.791z" fill="#ffffff"/>
		<path d="m52.926 33.925h-0.643v-5.739c0-0.527 0-1.063-0.032-1.591h0.633l0.021 0.801c0.399-0.633 0.926-0.927 1.717-0.927 1.643 0 2.348 1.358 2.348 2.79 0 1.434-0.705 2.792-2.348 2.792-0.738 0-1.317-0.284-1.696-0.896v2.77zm3.36-4.666c0-1.137-0.475-2.254-1.738-2.254-1.19 0-1.622 0.98-1.622 2.254 0 1.275 0.432 2.254 1.622 2.254 1.264 0 1.738-1.116 1.738-2.254z" fill="#ffffff"/>
		<path d="m60.274 27.089c-1.064 0-1.434 0.896-1.434 1.822v3.014h-0.643v-3.762c0-0.516-0.01-1.041-0.031-1.568h0.634l0.041 0.769c0.316-0.61 0.844-0.895 1.549-0.895 0.095 0 0.2 0.01 0.295 0.021v0.643c-0.148-0.023-0.264-0.044-0.411-0.044z" fill="#ffffff"/>
		<path d="m61.472 29.375c0 1.2 0.568 2.19 1.737 2.19 0.905 0 1.327-0.6 1.485-1.2h0.611c-0.285 1.116-0.97 1.686-2.181 1.686-1.622 0-2.339-1.201-2.339-2.696 0-1.527 0.748-2.886 2.423-2.886 1.696 0 2.149 1.484 2.149 2.906h-3.885zm0.02-0.484h3.181c0-1.043-0.494-1.938-1.506-1.938-0.916-1e-3 -1.549 0.694-1.675 1.938z" fill="#ffffff"/>
		<path d="m67.866 32.051c-1.095 0-1.916-0.517-1.916-1.686h0.643c0 0.8 0.526 1.2 1.306 1.2 0.727 0 1.295-0.348 1.295-1.062 0-0.643-0.663-0.812-1.358-1.012-0.842-0.242-1.759-0.506-1.759-1.538 0-1.147 0.958-1.484 1.854-1.484 1.031 0 1.801 0.399 1.832 1.505h-0.643c-0.031-0.631-0.484-0.989-1.169-0.989-0.537 0-1.19 0.21-1.19 0.905 0 0.633 0.653 0.812 1.348 1.001 0.844 0.231 1.77 0.484 1.77 1.517-1e-3 1.2-0.927 1.643-2.013 1.643z" fill="#ffffff"/>
		<path d="m72.322 32.051c-1.096 0-1.917-0.517-1.917-1.686h0.643c0 0.8 0.526 1.2 1.307 1.2 0.727 0 1.295-0.348 1.295-1.062 0-0.643-0.664-0.812-1.359-1.012-0.842-0.242-1.758-0.506-1.758-1.538 0-1.147 0.958-1.484 1.854-1.484 1.031 0 1.801 0.399 1.832 1.505h-0.643c-0.031-0.631-0.484-0.989-1.169-0.989-0.537 0-1.19 0.21-1.19 0.905 0 0.633 0.653 0.812 1.349 1.001 0.843 0.231 1.77 0.484 1.77 1.517-2e-3 1.2-0.929 1.643-2.014 1.643z" fill="#ffffff"/>
	</g>
</svg>
